<?xml version="1.0" encoding="iso-8859-1"?>
<!-- Generator: Adobe Illustrator 19.0.0, SVG Export Plug-In . SVG Version: 6.00 Build 0)  -->
<svg version="1.1" id="Layer_1" xmlns="http://www.w3.org/2000/svg" xmlns:xlink="http://www.w3.org/1999/xlink" x="0px" y="0px"
	 viewBox="0 0 512 512" style="enable-background:new 0 0 512 512;" xml:space="preserve">
<g>
	<polygon style="fill:#CCCCCC;" points="205.551,319.329 257.073,362.264 154.029,362.264 	"/>
	<rect x="188.377" y="66.013" style="fill:#CCCCCC;" width="34.348" height="266.197"/>
	<rect x="76.746" y="35.958" style="fill:#CCCCCC;" width="386.415" height="21.468"/>
</g>
<rect x="141.503" y="35.958" style="fill:#B2B2B2;" width="132.379" height="21.468"/>
<g>
	<rect x="164.763" y="8.05" style="fill:#CCCCCC;" width="83.723" height="77.283"/>
	<rect x="435.254" y="16.637" style="fill:#CCCCCC;" width="30.055" height="60.109"/>
	<rect x="46.692" y="16.637" style="fill:#CCCCCC;" width="34.348" height="60.109"/>
</g>
<path style="fill:#EB6836;" d="M316.109,179.79H181.937c-40.904,0-74.063,33.159-74.063,74.063v5.367h198.574v161.006H107.874v9.66
	c0,40.904,33.159,74.063,74.063,74.063h101.971c53.353,0,96.604-43.251,96.604-96.604V244.193
	C380.512,208.624,351.677,179.79,316.109,179.79z"/>
<path style="fill:#C74B38;" d="M111.5,230.955c-2.343,7.213-3.626,14.904-3.626,22.898v5.367h198.574v161.006H107.874v9.66
	c0,6.947,0.977,13.661,2.765,20.037h191.158c17.785,0,32.201-14.417,32.201-32.201V263.156c0-17.785-14.417-32.201-32.201-32.201
	L111.5,230.955L111.5,230.955z"/>
<path d="M465.308,8.587h-30.055c-4.447,0-8.05,3.603-8.05,8.05v11.27H256.537V8.05c0-4.447-3.603-8.05-8.05-8.05h-83.723
	c-4.447,0-8.05,3.603-8.05,8.05v19.857H89.09v-11.27c0-4.447-3.603-8.05-8.05-8.05H46.692c-4.447,0-8.05,3.603-8.05,8.05v60.109
	c0,4.447,3.603,8.05,8.05,8.05H81.04c4.447,0,8.05-3.603,8.05-8.05v-11.27h67.623v19.857c0,4.447,3.603,8.05,8.05,8.05h15.564
	v13.954h-9.124c-4.447,0-8.05,3.603-8.05,8.05s3.603,8.05,8.05,8.05h9.124v18.247h-9.124c-4.447,0-8.05,3.603-8.05,8.05
	c0,4.447,3.603,8.05,8.05,8.05h9.124v13.995c-44.534,0.864-80.503,37.334-80.503,82.072v5.367c0,4.447,3.603,8.05,8.05,8.05h72.453
	v16.101h-9.124c-4.447,0-8.05,3.603-8.05,8.05c0,4.447,3.603,8.05,8.05,8.05h9.124v18.247h-9.124c-4.447,0-8.05,3.603-8.05,8.05
	s3.603,8.05,8.05,8.05h4.384l-26.712,22.26c-2.604,2.169-3.569,5.738-2.415,8.924c1.153,3.188,4.181,5.31,7.569,5.31h103.044
	c3.389,0,6.417-2.123,7.569-5.31c1.154-3.187,0.189-6.755-2.415-8.924l-26.712-22.26h4.384c4.447,0,8.05-3.603,8.05-8.05
	s-3.603-8.05-8.05-8.05h-9.124v-18.247h9.124c4.447,0,8.05-3.603,8.05-8.05c0-4.447-3.603-8.05-8.05-8.05h-9.124V267.27h67.623
	v144.906H107.874c-4.447,0-8.05,3.603-8.05,8.05v9.66c0,45.278,36.835,82.113,82.113,82.113h101.971
	c57.707,0,104.654-46.947,104.654-104.654v-30.055c0-4.447-3.603-8.05-8.05-8.05c-4.447,0-8.05,3.603-8.05,8.05v30.055
	c0,48.828-39.726,88.553-88.553,88.553H181.937c-36.399,0-66.013-29.613-66.013-66.013v-1.61h190.524c4.447,0,8.05-3.603,8.05-8.05
	V259.22c0-4.447-3.603-8.05-8.05-8.05h-190.47c1.415-35.159,30.459-63.329,65.959-63.329h134.172
	c31.072,0,56.352,25.28,56.352,56.352v90.164c0,4.447,3.603,8.05,8.05,8.05c4.447,0,8.05-3.603,8.05-8.05v-90.164
	c0-39.951-32.502-72.453-72.453-72.453h-85.333v-13.954h9.124c4.447,0,8.05-3.603,8.05-8.05c0-4.447-3.603-8.05-8.05-8.05h-9.124
	v-18.247h9.124c4.447,0,8.05-3.603,8.05-8.05s-3.603-8.05-8.05-8.05h-9.124V93.384h17.711c4.447,0,8.05-3.603,8.05-8.05V65.476
	h34.885c4.447,0,8.05-3.603,8.05-8.05s-3.603-8.05-8.05-8.05h-34.885v-5.367h170.667v5.367h-92.847c-4.447,0-8.05,3.603-8.05,8.05
	s3.603,8.05,8.05,8.05h92.847v11.27c0,4.447,3.603,8.05,8.05,8.05h30.055c4.447,0,8.05-3.603,8.05-8.05V16.637
	C473.358,12.19,469.755,8.587,465.308,8.587z M176.265,354.214l16.158-13.464c0.187-0.156,0.362-0.321,0.53-0.489h25.353
	c0.307,0.367,0.644,0.715,1.024,1.032l15.507,12.922H176.265z M214.675,317.719h-18.247v-18.247h18.247V317.719z M214.675,283.371
	h-18.247V267.27h18.247V283.371z M72.99,68.696H54.742V24.688H72.99V68.696z M89.09,49.375v-5.367h67.623v5.367H89.09z
	 M214.675,171.74h-18.247v-13.954h18.247V171.74z M214.675,141.686h-18.247v-18.247h18.247V141.686z M214.675,107.338h-18.247
	V93.384h18.247V107.338z M240.436,77.283h-67.623V16.101h67.623V77.283z M457.258,68.696h-13.954V24.688h13.954V68.696z"/>
<g>
</g>
<g>
</g>
<g>
</g>
<g>
</g>
<g>
</g>
<g>
</g>
<g>
</g>
<g>
</g>
<g>
</g>
<g>
</g>
<g>
</g>
<g>
</g>
<g>
</g>
<g>
</g>
<g>
</g>
</svg>
